# 3ds Max Wavefront OBJ Exporter v0.97b - (c)2007 guruware
# 创建的文件:15.09.2017 09:12:30

mtllib foot.mtl

#
# object Element_Client_288fa370_obj01
#

v  -0.2025 0.0005 0.1570
v  -0.2119 -0.0003 0.0777
v  -0.1070 0.0000 0.0740
v  -0.1404 0.0003 0.1686
v  -0.1473 -0.0002 -0.0610
v  -0.1277 -0.0004 -0.0475
v  -0.1297 -0.0007 0.0016
v  -0.1720 -0.0004 -0.0479
v  -0.1770 -0.0008 -0.0018
v  -0.1788 0.0188 0.0116
v  -0.1300 0.0190 0.0157
v  -0.1837 0.2729 0.0307
v  -0.1858 0.2850 -0.0242
v  -0.1783 0.2115 -0.0218
v  -0.1788 0.2104 0.0201
v  -0.1460 0.2889 -0.0565
v  -0.1466 0.2108 -0.0448
v  -0.1184 0.2086 -0.0296
v  -0.1125 0.1630 -0.0441
v  -0.1481 0.1654 -0.0627
v  -0.1040 0.2067 0.0089
v  -0.0979 0.1591 0.0161
v  -0.1481 0.1882 0.0373
v  -0.0986 0.2685 0.0119
v  -0.1782 0.1385 0.0245
v  -0.1872 0.1007 0.0071
v  -0.1902 0.0938 0.0379
v  -0.1475 0.1415 -0.0540
v  -0.1820 0.1396 -0.0300
v  -0.1920 0.1625 -0.0299
v  -0.1198 0.1401 -0.0395
v  -0.1106 0.1335 0.0089
v  -0.1458 0.1408 0.0470
v  -0.1434 0.1027 0.0758
v  -0.1116 0.0989 0.0341
v  -0.2056 0.0292 0.1489
v  -0.2151 0.0306 0.0742
v  -0.1981 0.0596 -0.0001
v  -0.1876 0.0677 -0.0440
v  -0.1450 0.0726 -0.0707
v  -0.1168 0.0715 -0.0571
v  -0.1159 0.0604 0.0194
v  -0.1075 0.0345 0.0821
v  -0.1429 0.0315 0.1684
v  -0.1990 0.0516 0.0985
v  -0.1876 0.1045 -0.0405
v  -0.1468 0.1114 -0.0628
v  -0.1146 0.1043 -0.0483
v  -0.1411 0.0599 0.1098
v  -0.1507 0.1637 0.0503
v  -0.1858 0.1646 0.0250
v  -0.1081 0.2856 -0.0316
v  -0.1432 0.2495 -0.0048
v  0.2021 0.0005 0.1570
v  0.1400 0.0003 0.1686
v  0.1066 0.0000 0.0740
v  0.2115 -0.0003 0.0777
v  0.1716 -0.0004 -0.0479
v  0.1766 -0.0008 -0.0018
v  0.1293 -0.0007 0.0016
v  0.1469 -0.0002 -0.0610
v  0.1273 -0.0004 -0.0475
v  0.1296 0.0190 0.0157
v  0.1784 0.0188 0.0116
v  0.1833 0.2729 0.0307
v  0.1783 0.2104 0.0201
v  0.1779 0.2115 -0.0218
v  0.1854 0.2850 -0.0242
v  0.1456 0.2889 -0.0565
v  0.1462 0.2108 -0.0448
v  0.1180 0.2086 -0.0296
v  0.1477 0.1654 -0.0627
v  0.1121 0.1630 -0.0441
v  0.1036 0.2067 0.0089
v  0.0975 0.1591 0.0161
v  0.1477 0.1882 0.0373
v  0.0982 0.2685 0.0119
v  0.1868 0.1007 0.0071
v  0.1778 0.1385 0.0245
v  0.1898 0.0938 0.0379
v  0.1916 0.1625 -0.0299
v  0.1816 0.1396 -0.0300
v  0.1471 0.1415 -0.0540
v  0.1194 0.1401 -0.0395
v  0.1102 0.1335 0.0089
v  0.1454 0.1408 0.0470
v  0.1112 0.0989 0.0341
v  0.1430 0.1027 0.0758
v  0.2052 0.0292 0.1489
v  0.2147 0.0306 0.0742
v  0.1977 0.0596 -0.0001
v  0.1872 0.0677 -0.0440
v  0.1446 0.0726 -0.0707
v  0.1164 0.0715 -0.0571
v  0.1155 0.0604 0.0194
v  0.1071 0.0345 0.0821
v  0.1425 0.0315 0.1684
v  0.1986 0.0516 0.0985
v  0.1464 0.1114 -0.0628
v  0.1872 0.1045 -0.0405
v  0.1142 0.1043 -0.0483
v  0.1407 0.0599 0.1098
v  0.1503 0.1637 0.0503
v  0.1854 0.1646 0.0250
v  0.1077 0.2856 -0.0316
v  0.1428 0.2495 -0.0048
# 106 vertices

vn 0.0004 -1.0000 0.0057
vn -0.0009 -0.9934 -0.1145
vn 0.0039 -0.9887 -0.1497
vn -0.0030 -1.0000 0.0018
vn -0.0001 -1.0000 -0.0088
vn -0.0082 -0.9999 -0.0066
vn 0.0008 -1.0000 -0.0087
vn 0.0035 -0.9999 -0.0096
vn 0.0027 -1.0000 -0.0089
vn 0.0054 -0.9558 -0.2941
vn 0.0294 -0.9473 -0.3191
vn -0.9956 -0.0932 0.0069
vn -0.9947 -0.1014 0.0166
vn -0.9976 0.0638 0.0276
vn -0.9686 0.1077 0.2240
vn -0.6101 -0.0974 -0.7863
vn -0.5827 0.1143 -0.8046
vn -0.5971 0.1030 -0.7955
vn -0.6212 -0.0894 -0.7785
vn 0.7651 0.1021 -0.6357
vn 0.7700 -0.0439 -0.6365
vn 0.4676 0.0199 -0.8837
vn 0.4910 0.1071 -0.8645
vn 0.9506 0.0562 0.3053
vn 0.9067 -0.1638 0.3886
vn 0.1796 0.3976 0.8998
vn 0.9913 -0.1245 -0.0418
vn -0.8749 0.0343 0.4831
vn -0.9771 0.2115 -0.0242
vn -0.8590 0.4510 0.2423
vn -0.5846 0.0195 -0.8111
vn -0.5500 -0.0250 -0.8348
vn -0.5820 0.0048 -0.8132
vn -0.5991 0.0333 -0.7999
vn 0.8021 -0.0672 -0.5934
vn 0.4615 -0.0352 -0.8865
vn 0.9661 -0.1174 0.2300
vn 0.1621 0.2638 0.9509
vn 0.1638 0.6643 0.7292
vn 0.9457 0.1971 0.2586
vn -0.8040 0.5118 0.3029
vn -0.9916 0.0987 -0.0841
vn -0.9832 -0.1166 -0.1406
vn -0.9904 -0.0727 0.1177
vn -0.9846 -0.0119 -0.1744
vn -0.9213 -0.3887 0.0099
vn -0.5241 -0.0018 -0.8517
vn -0.5188 0.0177 -0.8547
vn -0.4891 -0.0727 -0.8692
vn -0.4682 -0.0572 -0.8818
vn 0.4507 0.0189 -0.8925
vn 0.8115 -0.0453 -0.5826
vn 0.8667 -0.1877 -0.4622
vn 0.5627 -0.1262 -0.8170
vn 0.9840 -0.1574 -0.0837
vn 0.9612 -0.2498 0.1168
vn 0.9721 0.1616 0.1700
vn 0.6067 0.6158 0.5028
vn 0.9277 0.0447 0.3706
vn 0.9996 0.0177 -0.0216
vn -0.2164 0.0568 0.9746
vn -0.2972 0.2296 0.9268
vn -0.2681 0.1654 0.9491
vn -0.1834 -0.0097 0.9830
vn -0.6334 0.6933 0.3436
vn -0.5261 0.1912 -0.8287
vn -0.4948 0.1922 -0.8475
vn 0.8395 0.1357 -0.5261
vn 0.4449 0.2352 -0.8641
vn 0.3372 0.7477 0.5720
vn -0.9852 -0.0265 -0.1695
vn -0.9458 -0.2775 -0.1688
vn -0.9435 -0.3308 0.0189
vn 0.9409 -0.2849 0.1832
vn -0.0123 0.0645 0.9978
vn -0.8746 -0.0177 0.4845
vn -0.9975 0.0699 0.0126
vn -0.9923 -0.0834 0.0913
vn -0.9938 -0.0985 0.0508
vn 0.7625 -0.1349 -0.6328
vn 0.5353 -0.1286 -0.8348
vn -0.0601 -0.5717 0.8183
vn -0.0576 -0.5672 0.8216
vn -0.0635 -0.5778 0.8137
vn -0.0659 -0.5821 0.8105
vn -0.5791 -0.1806 0.7950
vn 0.5912 0.7923 0.1509
vn 0.3716 0.7476 0.5505
vn -0.3185 0.7452 0.5859
vn -0.4826 0.7740 0.4099
vn -0.4839 0.5211 0.7030
vn 0.7236 0.3498 0.5950
vn -0.0004 -1.0000 0.0057
vn 0.0030 -1.0000 0.0018
vn -0.0039 -0.9887 -0.1497
vn 0.0009 -0.9934 -0.1145
vn -0.0035 -0.9999 -0.0096
vn -0.0027 -1.0000 -0.0089
vn -0.0008 -1.0000 -0.0087
vn 0.0001 -1.0000 -0.0088
vn 0.0082 -0.9999 -0.0066
vn -0.0294 -0.9473 -0.3191
vn -0.0054 -0.9558 -0.2941
vn 0.9956 -0.0932 0.0069
vn 0.9686 0.1077 0.2240
vn 0.9976 0.0638 0.0276
vn 0.9947 -0.1014 0.0166
vn 0.6101 -0.0974 -0.7863
vn 0.6212 -0.0894 -0.7785
vn 0.5971 0.1030 -0.7955
vn 0.5827 0.1143 -0.8046
vn -0.7651 0.1021 -0.6357
vn -0.4910 0.1071 -0.8645
vn -0.4676 0.0199 -0.8837
vn -0.7700 -0.0439 -0.6365
vn -0.9506 0.0562 0.3053
vn -0.9067 -0.1638 0.3886
vn -0.1796 0.3976 0.8998
vn -0.9913 -0.1245 -0.0418
vn 0.9771 0.2115 -0.0242
vn 0.8749 0.0343 0.4831
vn 0.8590 0.4510 0.2423
vn 0.5846 0.0195 -0.8111
vn 0.5991 0.0333 -0.7999
vn 0.5820 0.0048 -0.8132
vn 0.5500 -0.0250 -0.8348
vn -0.8021 -0.0672 -0.5934
vn -0.4615 -0.0352 -0.8865
vn -0.9661 -0.1174 0.2300
vn -0.1621 0.2638 0.9509
vn -0.9457 0.1971 0.2586
vn -0.1638 0.6643 0.7292
vn 0.8040 0.5118 0.3029
vn 0.9904 -0.0727 0.1177
vn 0.9832 -0.1166 -0.1406
vn 0.9916 0.0987 -0.0841
vn 0.9213 -0.3887 0.0099
vn 0.9846 -0.0119 -0.1744
vn 0.5241 -0.0018 -0.8517
vn 0.4682 -0.0572 -0.8818
vn 0.4891 -0.0727 -0.8692
vn 0.5188 0.0177 -0.8547
vn -0.4507 0.0189 -0.8925
vn -0.5627 -0.1262 -0.8170
vn -0.8667 -0.1877 -0.4622
vn -0.8115 -0.0453 -0.5826
vn -0.9612 -0.2498 0.1168
vn -0.9840 -0.1574 -0.0837
vn -0.9721 0.1616 0.1700
vn -0.9996 0.0177 -0.0216
vn -0.9277 0.0447 0.3706
vn -0.6067 0.6158 0.5028
vn 0.2164 0.0568 0.9746
vn 0.1834 -0.0097 0.9830
vn 0.2681 0.1654 0.9491
vn 0.2972 0.2296 0.9268
vn 0.6334 0.6933 0.3436
vn 0.4948 0.1922 -0.8475
vn 0.5261 0.1912 -0.8287
vn -0.8395 0.1357 -0.5261
vn -0.4449 0.2352 -0.8641
vn -0.3372 0.7477 0.5720
vn 0.9435 -0.3308 0.0189
vn 0.9458 -0.2775 -0.1688
vn 0.9852 -0.0265 -0.1695
vn -0.9409 -0.2849 0.1832
vn 0.0123 0.0645 0.9978
vn 0.8746 -0.0177 0.4845
vn 0.9975 0.0699 0.0126
vn 0.9923 -0.0834 0.0913
vn 0.9938 -0.0985 0.0508
vn -0.7625 -0.1349 -0.6328
vn -0.5353 -0.1286 -0.8348
vn 0.0601 -0.5717 0.8183
vn 0.0659 -0.5821 0.8105
vn 0.0635 -0.5778 0.8137
vn 0.0576 -0.5672 0.8216
vn 0.5791 -0.1806 0.7950
vn -0.5912 0.7923 0.1509
vn -0.3716 0.7476 0.5505
vn 0.3185 0.7452 0.5859
vn 0.4826 0.7740 0.4099
vn 0.4839 0.5211 0.7030
vn -0.7236 0.3498 0.5950
# 184 vertex normals

vt 0.9063 0.2539 1.0000
vt 0.8359 0.1797 1.0000
vt 0.9453 0.1563 1.0000
vt 0.9844 0.2617 1.0000
vt 0.8203 0.0234 1.0000
vt 0.8438 0.0391 1.0000
vt 0.8750 0.0859 1.0000
vt 0.7969 0.0430 1.0000
vt 0.8281 0.0938 1.0000
vt 0.8281 0.1055 1.0000
vt 0.8828 0.1016 1.0000
vt 0.7266 0.8359 1.0000
vt 0.8359 0.9063 1.0000
vt 0.8359 0.6680 1.0000
vt 0.7266 0.6758 1.0000
vt 0.9844 0.9688 1.0000
vt 0.9688 0.6680 1.0000
vt 0.2344 0.6758 1.0000
vt 0.2656 0.5352 1.0000
vt 0.0781 0.5352 1.0000
vt 0.0781 0.6563 1.0000
vt 0.4453 0.6680 1.0000
vt 0.4219 0.5352 1.0000
vt 0.5703 0.6250 1.0000
vt 0.4609 0.8320 1.0000
vt 0.6875 0.4844 1.0000
vt 0.7031 0.3633 1.0000
vt 0.6641 0.3359 1.0000
vt 0.9688 0.5508 1.0000
vt 0.9688 0.4883 1.0000
vt 0.8047 0.4844 1.0000
vt 0.8125 0.5391 1.0000
vt 0.2578 0.4805 1.0000
vt 0.0703 0.4844 1.0000
vt 0.4063 0.4844 1.0000
vt 0.5625 0.4844 1.0000
vt 0.5547 0.3359 1.0000
vt 0.4219 0.3516 1.0000
vt 0.6484 0.0977 1.0000
vt 0.7031 0.1250 1.0000
vt 0.7422 0.0625 1.0000
vt 0.6484 0.0391 1.0000
vt 0.7813 0.3203 1.0000
vt 0.7969 0.1523 1.0000
vt 0.8438 0.3711 1.0000
vt 0.9922 0.3789 1.0000
vt 0.9922 0.2969 1.0000
vt 0.8984 0.2773 1.0000
vt 0.0391 0.3711 1.0000
vt 0.2578 0.3633 1.0000
vt 0.1641 0.3008 1.0000
vt 0.0391 0.3086 1.0000
vt 0.3672 0.2930 1.0000
vt 0.2500 0.2617 1.0000
vt 0.4609 0.1250 1.0000
vt 0.5391 0.0977 1.0000
vt 0.5469 0.0391 1.0000
vt 0.4297 0.0664 1.0000
vt 0.6328 0.1602 1.0000
vt 0.8047 0.4141 1.0000
vt 0.9766 0.4336 1.0000
vt 0.2578 0.4063 1.0000
vt 0.0625 0.4180 1.0000
vt 0.5469 0.1680 1.0000
vt 0.8516 0.2383 1.0000
vt 0.3281 0.1680 1.0000
vt 0.5625 0.5313 1.0000
vt 0.7109 0.5352 1.0000
vt 0.2578 0.9531 1.0000
vt 0.0313 0.9609 1.0000
vt 0.1719 0.1133 1.0000
vt 0.0391 0.0820 1.0000
vt 0.0391 0.1680 1.0000
vt 0.1641 0.0313 1.0000
vt 0.2969 0.0703 1.0000
vt 0.3203 0.1367 1.0000
vt 0.1484 0.1797 1.0000
vt 0.5391 0.0898 1.0000
# 78 texture coords

g Element_Client_288fa370_obj01
usemtl Material__1595
f 1/1/1 2/2/2 3/3/3 
f 3/3/3 4/4/4 1/1/1 
f 5/5/5 6/6/6 7/7/7 
f 8/8/8 5/5/5 7/7/7 
f 9/9/9 8/8/8 7/7/7 
f 3/3/3 2/2/2 10/10/10 
f 10/10/10 11/11/11 3/3/3 
f 12/12/12 13/13/13 14/14/14 
f 14/14/14 15/15/15 12/12/12 
f 16/16/16 17/17/17 14/14/18 
f 14/14/18 13/13/19 16/16/16 
f 18/18/20 19/19/21 20/20/22 
f 20/20/22 17/21/23 18/18/20 
f 21/22/24 22/23/25 19/19/21 
f 19/19/21 18/18/20 21/22/24 
f 23/24/26 21/22/24 24/25/27 
f 25/26/28 26/27/29 27/28/30 
f 20/29/31 28/30/32 29/31/33 
f 29/31/33 30/32/34 20/29/31 
f 31/33/35 28/34/36 20/20/22 
f 20/20/22 19/19/21 31/33/35 
f 32/35/37 31/33/35 19/19/21 
f 19/19/21 22/23/25 32/35/37 
f 33/36/38 34/37/39 35/38/40 
f 35/38/40 32/35/37 33/36/38 
f 33/36/38 25/26/28 27/28/30 
f 27/28/30 34/37/39 33/36/38 
f 36/39/41 37/40/42 2/41/43 
f 2/41/43 1/42/44 36/39/41 
f 37/40/42 38/43/45 10/44/46 
f 10/44/46 2/41/43 37/40/42 
f 39/45/47 40/46/48 5/47/49 
f 5/47/49 8/48/50 39/45/47 
f 40/49/51 41/50/52 6/51/53 
f 6/51/53 5/52/54 40/49/51 
f 6/51/53 41/50/52 42/53/55 
f 42/53/55 7/54/56 6/51/53 
f 43/55/57 44/56/58 4/57/59 
f 4/57/59 3/58/60 43/55/57 
f 44/56/61 36/39/62 1/42/63 
f 1/42/63 4/57/64 44/56/61 
f 45/59/65 27/28/30 37/40/42 
f 38/43/45 27/28/30 26/27/29 
f 40/46/48 39/45/47 46/60/66 
f 46/60/66 47/61/67 40/46/48 
f 48/62/68 41/50/52 40/49/51 
f 40/49/51 47/63/69 48/62/68 
f 35/38/40 42/53/55 41/50/52 
f 41/50/52 48/62/68 35/38/40 
f 34/37/39 49/64/70 43/55/57 
f 43/55/57 35/38/40 34/37/39 
f 45/59/65 49/64/70 34/37/39 
f 34/37/39 27/28/30 45/59/65 
f 36/39/41 44/56/58 49/64/70 
f 49/64/70 45/59/65 36/39/41 
f 36/39/41 45/59/65 37/40/42 
f 44/56/58 43/55/57 49/64/70 
f 38/43/45 39/45/71 8/48/72 
f 8/48/72 9/65/73 38/43/45 
f 43/55/57 3/58/60 11/66/74 
f 11/66/74 42/53/55 43/55/57 
f 37/40/42 27/28/30 38/43/45 
f 43/55/57 42/53/55 35/38/40 
f 32/35/37 22/23/25 50/67/75 
f 50/67/75 33/36/38 32/35/37 
f 50/67/75 51/68/76 25/26/28 
f 25/26/28 33/36/38 50/67/75 
f 26/27/29 46/60/77 39/45/71 
f 39/45/71 38/43/45 26/27/29 
f 30/32/78 29/31/79 25/26/28 
f 25/26/28 51/68/76 30/32/78 
f 26/27/29 25/26/28 29/31/79 
f 29/31/79 46/60/77 26/27/29 
f 46/60/66 29/31/33 28/30/32 
f 28/30/32 47/61/67 46/60/66 
f 47/63/69 28/34/36 31/33/35 
f 31/33/35 48/62/68 47/63/69 
f 32/35/37 35/38/40 48/62/68 
f 48/62/68 31/33/35 32/35/37 
f 51/68/76 15/15/15 14/14/14 
f 14/14/14 30/32/78 51/68/76 
f 14/14/18 17/17/17 20/29/31 
f 20/29/31 30/32/34 14/14/18 
f 52/69/80 18/18/20 17/21/23 
f 17/21/23 16/70/81 52/69/80 
f 24/25/27 21/22/24 18/18/20 
f 18/18/20 52/69/80 24/25/27 
f 21/22/24 23/24/26 50/67/75 
f 50/67/75 22/23/25 21/22/24 
f 50/67/75 23/24/26 15/15/15 
f 15/15/15 51/68/76 50/67/75 
f 9/65/73 10/44/46 38/43/45 
f 10/10/82 9/9/83 7/7/84 
f 7/7/84 11/11/85 10/10/82 
f 42/53/55 11/66/74 7/54/56 
f 12/12/86 15/15/86 23/24/86 
f 53/71/87 13/72/87 12/73/87 
f 53/71/88 16/74/88 13/72/88 
f 53/71/89 52/75/89 16/74/89 
f 53/71/90 24/76/90 52/75/90 
f 53/71/91 23/77/91 24/76/91 
f 53/71/92 12/73/92 23/77/92 
f 54/1/93 55/4/94 56/3/95 
f 56/3/95 57/2/96 54/1/93 
f 58/8/97 59/9/98 60/7/99 
f 61/5/100 58/8/97 60/7/99 
f 62/6/101 61/5/100 60/7/99 
f 56/3/95 63/11/102 64/10/103 
f 64/10/103 57/2/96 56/3/95 
f 65/12/104 66/15/105 67/14/106 
f 67/14/106 68/13/107 65/12/104 
f 69/16/108 68/13/109 67/14/110 
f 67/14/110 70/17/111 69/16/108 
f 71/18/112 70/21/113 72/20/114 
f 72/20/114 73/19/115 71/18/112 
f 74/22/116 71/18/112 73/19/115 
f 73/19/115 75/23/117 74/22/116 
f 74/22/116 76/24/118 77/25/119 
f 78/27/120 79/26/121 80/28/122 
f 72/29/123 81/32/124 82/31/125 
f 82/31/125 83/30/126 72/29/123 
f 84/33/127 73/19/115 72/20/114 
f 72/20/114 83/34/128 84/33/127 
f 85/35/129 75/23/117 73/19/115 
f 73/19/115 84/33/127 85/35/129 
f 86/36/130 85/35/129 87/38/131 
f 87/38/131 88/37/132 86/36/130 
f 86/36/130 88/37/132 80/28/122 
f 80/28/122 79/26/121 86/36/130 
f 89/39/133 54/42/134 57/41/135 
f 57/41/135 90/40/136 89/39/133 
f 90/40/136 57/41/135 64/44/137 
f 64/44/137 91/43/138 90/40/136 
f 92/45/139 58/48/140 61/47/141 
f 61/47/141 93/46/142 92/45/139 
f 93/49/143 61/52/144 62/51/145 
f 62/51/145 94/50/146 93/49/143 
f 62/51/145 60/54/147 95/53/148 
f 95/53/148 94/50/146 62/51/145 
f 96/55/149 56/58/150 55/57/151 
f 55/57/151 97/78/152 96/55/149 
f 97/78/153 55/57/154 54/42/155 
f 54/42/155 89/39/156 97/78/153 
f 80/28/122 98/59/157 90/40/136 
f 80/28/122 91/43/138 78/27/120 
f 93/46/142 99/61/158 100/60/159 
f 100/60/159 92/45/139 93/46/142 
f 101/62/160 99/63/161 93/49/143 
f 93/49/143 94/50/146 101/62/160 
f 87/38/131 101/62/160 94/50/146 
f 94/50/146 95/53/148 87/38/131 
f 88/37/132 87/38/131 96/55/149 
f 96/55/149 102/64/162 88/37/132 
f 98/59/157 80/28/122 88/37/132 
f 88/37/132 102/64/162 98/59/157 
f 89/39/133 98/59/157 102/64/162 
f 102/64/162 97/78/152 89/39/133 
f 98/59/157 89/39/133 90/40/136 
f 96/55/149 97/78/152 102/64/162 
f 91/43/138 59/65/163 58/48/164 
f 58/48/164 92/45/165 91/43/138 
f 96/55/149 95/53/148 63/66/166 
f 63/66/166 56/58/150 96/55/149 
f 80/28/122 90/40/136 91/43/138 
f 95/53/148 96/55/149 87/38/131 
f 85/35/129 86/36/130 103/67/167 
f 103/67/167 75/23/117 85/35/129 
f 103/67/167 86/36/130 79/26/121 
f 79/26/121 104/68/168 103/67/167 
f 78/27/120 91/43/138 92/45/165 
f 92/45/165 100/60/169 78/27/120 
f 81/32/170 104/68/168 79/26/121 
f 79/26/121 82/31/171 81/32/170 
f 78/27/120 100/60/169 82/31/171 
f 82/31/171 79/26/121 78/27/120 
f 100/60/159 99/61/158 83/30/126 
f 83/30/126 82/31/125 100/60/159 
f 99/63/161 101/62/160 84/33/127 
f 84/33/127 83/34/128 99/63/161 
f 85/35/129 84/33/127 101/62/160 
f 101/62/160 87/38/131 85/35/129 
f 104/68/168 81/32/170 67/14/106 
f 67/14/106 66/15/105 104/68/168 
f 67/14/110 81/32/124 72/29/123 
f 72/29/123 70/17/111 67/14/110 
f 105/69/172 69/70/173 70/21/113 
f 70/21/113 71/18/112 105/69/172 
f 77/25/119 105/69/172 71/18/112 
f 71/18/112 74/22/116 77/25/119 
f 74/22/116 75/23/117 103/67/167 
f 103/67/167 76/24/118 74/22/116 
f 103/67/167 104/68/168 66/15/105 
f 66/15/105 76/24/118 103/67/167 
f 64/44/137 59/65/163 91/43/138 
f 64/10/174 63/11/175 60/7/176 
f 60/7/176 59/9/177 64/10/174 
f 63/66/166 95/53/148 60/54/147 
f 66/15/178 65/12/178 76/24/178 
f 68/72/179 106/71/179 65/73/179 
f 69/74/180 106/71/180 68/72/180 
f 105/75/181 106/71/181 69/74/181 
f 77/76/182 106/71/182 105/75/182 
f 76/77/183 106/71/183 77/76/183 
f 65/73/184 106/71/184 76/77/184 
# 204 faces

