# 3ds Max Wavefront OBJ Exporter v0.97b - (c)2007 guruware
# 创建的文件:15.09.2017 09:11:00

mtllib houti.mtl

#
# object 250a9e18_o
#

v  0.0111 1.0609 -0.0666
v  0.0362 1.1285 -0.0420
v  0.0442 1.0685 -0.0613
v  0.1609 1.0588 0.0370
v  0.1319 1.0717 -0.0354
v  0.1165 1.1281 -0.0013
v  0.1353 1.1244 0.0547
v  0.0845 1.0721 -0.0515
v  0.0720 1.1324 -0.0289
v  0.0509 0.9792 -0.1048
v  0.0976 0.9865 -0.0924
v  0.0937 0.9465 -0.1013
v  0.0553 0.9406 -0.1080
v  0.0531 1.1478 -0.0219
v  0.1109 1.1450 0.0082
v  0.1245 1.1470 0.0571
v  0.1404 0.9991 -0.0495
v  0.1463 0.9579 -0.0510
v  0.1764 0.9501 0.0117
v  0.0021 0.9771 -0.1032
v  0.0024 1.1250 -0.0417
v  0.0023 1.0596 -0.0673
v  0.0024 1.1458 -0.0235
v  0.0020 0.9382 -0.1079
v  0.0765 0.8430 -0.1381
v  0.1529 0.8477 -0.0836
v  0.1870 0.8396 -0.0094
v  0.0018 0.8294 -0.1473
v  0.1639 0.6888 -0.1105
v  0.0864 0.6876 -0.1898
v  0.2020 0.6764 -0.0376
v  -0.0015 0.6784 -0.2068
v  0.1782 0.5767 -0.1325
v  0.1048 0.5850 -0.2189
v  0.2192 0.5643 -0.0599
v  0.0016 0.5825 -0.2407
v  0.1932 0.4735 -0.1603
v  0.1189 0.4812 -0.2540
v  0.2272 0.4627 -0.0924
v  0.0019 0.4813 -0.2875
v  0.2489 0.2817 -0.1916
v  0.1396 0.2992 -0.3173
v  0.0016 0.2947 -0.3731
v  0.2992 0.1625 -0.2926
v  0.1467 0.1929 -0.3811
v  0.0011 0.2007 -0.4283
v  0.3937 -0.0435 -0.5897
v  0.1939 0.0170 -0.6602
v  0.0009 0.0031 -0.7253
v  0.4669 -0.1016 -0.7955
v  0.2511 0.0052 -0.8900
v  0.0012 -0.0550 -0.9352
v  -0.0315 1.1288 -0.0425
v  -0.0065 1.0610 -0.0667
v  -0.0397 1.0689 -0.0618
v  -0.1573 1.0601 0.0352
v  -0.1300 1.1332 0.0566
v  -0.1186 1.1298 -0.0019
v  -0.1277 1.0728 -0.0369
v  -0.0800 1.0730 -0.0525
v  -0.0673 1.1330 -0.0298
v  -0.0467 0.9796 -0.1054
v  -0.0513 0.9411 -0.1086
v  -0.0897 0.9474 -0.1023
v  -0.0934 0.9874 -0.0935
v  -0.0526 1.1443 -0.0209
v  -0.1186 1.1487 0.0645
v  -0.1142 1.1465 0.0177
v  -0.1425 0.9592 -0.0525
v  -0.1364 1.0004 -0.0510
v  -0.1731 0.9517 0.0099
v  -0.0729 0.8437 -0.1389
v  -0.1497 0.8491 -0.0852
v  -0.1843 0.8413 -0.0114
v  -0.0895 0.6884 -0.1906
v  -0.1675 0.6903 -0.1120
v  -0.2061 0.6782 -0.0395
v  -0.1018 0.5859 -0.2198
v  -0.1759 0.5782 -0.1340
v  -0.2175 0.5661 -0.0617
v  -0.1903 0.4750 -0.1618
v  -0.1153 0.4821 -0.2550
v  -0.2250 0.4645 -0.0942
v  -0.2473 0.2837 -0.1935
v  -0.1368 0.3003 -0.3184
v  -0.1448 0.1943 -0.3819
v  -0.2981 0.1654 -0.2942
v  -0.3930 -0.0397 -0.5918
v  -0.1923 0.0189 -0.6613
v  -0.2483 0.0077 -0.8914
v  -0.4656 -0.0970 -0.7980
# 91 vertices

vn 0.0226 0.3842 -0.9230
vn 0.0620 0.5459 -0.8356
vn 0.1249 0.3804 -0.9164
vn 0.9003 0.3012 -0.3142
vn 0.6714 0.3392 -0.6589
vn 0.6942 0.5170 -0.5007
vn 0.8671 0.4236 -0.2620
vn 0.2860 0.3745 -0.8820
vn 0.3528 0.5824 -0.7324
vn 0.0768 0.2696 -0.9599
vn 0.4440 0.2892 -0.8481
vn 0.4444 0.1787 -0.8778
vn 0.0686 0.2127 -0.9747
vn 0.2001 0.6725 -0.7125
vn 0.6973 0.5135 -0.5001
vn 0.8617 0.4369 -0.2581
vn 0.7699 0.2307 -0.5950
vn 0.8019 0.1606 -0.5755
vn 0.9022 0.1813 -0.3913
vn 0.0064 0.2619 -0.9651
vn -0.0046 0.5345 -0.8452
vn 0.0075 0.3836 -0.9235
vn -0.0273 0.6578 -0.7527
vn 0.0063 0.2272 -0.9738
vn 0.3140 0.3097 -0.8975
vn 0.7600 0.2121 -0.6143
vn 0.9019 0.1510 -0.4047
vn 0.0070 0.3453 -0.9385
vn 0.8091 0.1946 -0.5545
vn 0.4203 0.3058 -0.8543
vn 0.8813 0.1823 -0.4360
vn 0.0035 0.3358 -0.9419
vn 0.8173 0.2321 -0.5274
vn 0.4930 0.3129 -0.8118
vn 0.8657 0.2178 -0.4506
vn 0.0063 0.3513 -0.9362
vn 0.8178 0.2897 -0.4973
vn 0.5239 0.3464 -0.7782
vn 0.8735 0.2661 -0.4077
vn 0.0056 0.3987 -0.9171
vn 0.7212 0.4617 -0.5165
vn 0.5007 0.4506 -0.7391
vn 0.0055 0.4743 -0.8803
vn 0.5033 0.7006 -0.5059
vn 0.3714 0.6781 -0.6342
vn 0.0053 0.7214 -0.6925
vn 0.4018 0.8873 -0.2263
vn 0.1913 0.9343 -0.3008
vn 0.0056 0.9227 -0.3854
vn 0.4702 0.8789 -0.0807
vn 0.0784 0.9944 -0.0714
vn 0.0053 0.9840 -0.1778
vn -0.0334 0.6127 -0.7896
vn -0.0078 0.3841 -0.9232
vn -0.1105 0.3807 -0.9181
vn -0.9085 0.2801 -0.3102
vn -0.8452 0.5112 -0.1558
vn -0.6651 0.5676 -0.4853
vn -0.6586 0.3230 -0.6796
vn -0.2729 0.3759 -0.8856
vn -0.3011 0.6252 -0.7201
vn -0.0641 0.2700 -0.9607
vn -0.0562 0.2132 -0.9754
vn -0.4342 0.1818 -0.8823
vn -0.4334 0.2921 -0.8526
vn -0.1690 0.7652 -0.6212
vn -0.7761 0.6221 -0.1032
vn -0.7127 0.6170 -0.3337
vn -0.7960 0.1659 -0.5822
vn -0.7631 0.2353 -0.6019
vn -0.8980 0.1869 -0.3982
vn -0.2983 0.3180 -0.8999
vn -0.7499 0.2314 -0.6198
vn -0.8962 0.1725 -0.4086
vn -0.4193 0.3006 -0.8567
vn -0.8055 0.1918 -0.5607
vn -0.8776 0.1782 -0.4450
vn -0.4832 0.3009 -0.8222
vn -0.8144 0.2110 -0.5406
vn -0.8639 0.1955 -0.4641
vn -0.8123 0.2918 -0.5051
vn -0.5147 0.3481 -0.7835
vn -0.8691 0.2677 -0.4160
vn -0.7131 0.4681 -0.5219
vn -0.4911 0.4546 -0.7430
vn -0.3612 0.6816 -0.6363
vn -0.4935 0.7055 -0.5087
vn -0.3918 0.8912 -0.2285
vn -0.1805 0.9361 -0.3018
vn -0.0682 0.9951 -0.0718
vn -0.4611 0.8834 -0.0832
# 91 vertex normals

vt 0.6809 0.6420 0.0000
vt 0.6520 0.6672 0.0000
vt 0.6624 0.6373 0.0000
vt 0.5692 0.6104 0.0000
vt 0.6008 0.6191 0.0000
vt 0.5916 0.6489 0.0000
vt 0.5634 0.6404 0.0000
vt 0.6337 0.6279 0.0000
vt 0.6246 0.6581 0.0000
vt 0.6722 0.6083 0.0000
vt 0.6420 0.6000 0.0000
vt 0.6489 0.5859 0.0000
vt 0.6745 0.5936 0.0000
vt 0.6224 0.6765 0.0000
vt 0.5849 0.6648 0.0000
vt 0.5643 0.6599 0.0000
vt 0.6054 0.5961 0.0000
vt 0.6070 0.5803 0.0000
vt 0.5759 0.5747 0.0000
vt 0.6994 0.6183 0.0000
vt 0.6820 0.6765 0.0000
vt 0.6915 0.6448 0.0000
vt 0.6767 0.6942 0.0000
vt 0.7037 0.6042 0.0000
vt 0.6709 0.5476 0.0000
vt 0.6195 0.5357 0.0000
vt 0.5841 0.5299 0.0000
vt 0.7159 0.5633 0.0000
vt 0.6351 0.4848 0.0000
vt 0.6843 0.4943 0.0000
vt 0.5946 0.4765 0.0000
vt 0.7325 0.5081 0.0000
vt 0.6442 0.4425 0.0000
vt 0.6940 0.4550 0.0000
vt 0.6023 0.4352 0.0000
vt 0.7434 0.4714 0.0000
vt 0.6507 0.4008 0.0000
vt 0.7010 0.4141 0.0000
vt 0.6108 0.3939 0.0000
vt 0.7556 0.4309 0.0000
vt 0.6333 0.3160 0.0000
vt 0.7098 0.3381 0.0000
vt 0.7781 0.3557 0.0000
vt 0.6643 0.2157 0.0000
vt 0.7414 0.2411 0.0000
vt 0.8088 0.2534 0.0000
vt 0.6971 0.1050 0.0000
vt 0.7711 0.1439 0.0000
vt 0.8448 0.1507 0.0000
vt 0.7218 0.0224 0.0000
vt 0.8013 0.0466 0.0000
vt 0.8742 0.0496 0.0000
# 52 texture coords

g 250a9e18_o
usemtl Material__1567
f 1/1/1 2/2/2 3/3/3 
f 4/4/4 5/5/5 6/6/6 
f 6/6/6 7/7/7 4/4/4 
f 8/8/8 3/3/3 2/2/2 
f 2/2/2 9/9/9 8/8/8 
f 10/10/10 11/11/11 12/12/12 
f 12/12/12 13/13/13 10/10/10 
f 14/14/14 9/9/9 2/2/2 
f 7/7/7 6/6/6 15/15/15 
f 15/15/15 16/16/16 7/7/7 
f 9/9/9 6/6/6 5/5/5 
f 5/5/5 8/8/8 9/9/9 
f 11/11/11 17/17/17 18/18/18 
f 18/18/18 12/12/12 11/11/11 
f 14/14/14 15/15/15 6/6/6 
f 6/6/6 9/9/9 14/14/14 
f 19/19/19 18/18/18 17/17/17 
f 17/17/17 4/4/4 19/19/19 
f 10/10/10 20/20/20 1/1/1 
f 1/1/1 3/3/3 10/10/10 
f 11/11/11 10/10/10 3/3/3 
f 3/3/3 8/8/8 11/11/11 
f 17/17/17 11/11/11 8/8/8 
f 8/8/8 5/5/5 17/17/17 
f 5/5/5 4/4/4 17/17/17 
f 21/21/21 2/2/2 1/1/1 
f 1/1/1 22/22/22 21/21/21 
f 14/14/14 2/2/2 21/21/21 
f 21/21/21 23/23/23 14/14/14 
f 20/20/20 22/22/22 1/1/1 
f 10/10/10 13/13/13 24/24/24 
f 24/24/24 20/20/20 10/10/10 
f 25/25/25 13/13/13 12/12/12 
f 18/18/18 26/26/26 25/25/25 
f 25/25/25 12/12/12 18/18/18 
f 19/19/19 27/27/27 26/26/26 
f 26/26/26 18/18/18 19/19/19 
f 13/13/13 25/25/25 28/28/28 
f 28/28/28 24/24/24 13/13/13 
f 26/26/26 29/29/29 30/30/30 
f 30/30/30 25/25/25 26/26/26 
f 27/27/27 31/31/31 29/29/29 
f 29/29/29 26/26/26 27/27/27 
f 25/25/25 30/30/30 32/32/32 
f 32/32/32 28/28/28 25/25/25 
f 29/29/29 33/33/33 34/34/34 
f 34/34/34 30/30/30 29/29/29 
f 31/31/31 35/35/35 33/33/33 
f 33/33/33 29/29/29 31/31/31 
f 30/30/30 34/34/34 36/36/36 
f 36/36/36 32/32/32 30/30/30 
f 37/37/37 38/38/38 34/34/34 
f 34/34/34 33/33/33 37/37/37 
f 39/39/39 37/37/37 33/33/33 
f 33/33/33 35/35/35 39/39/39 
f 38/38/38 40/40/40 36/36/36 
f 36/36/36 34/34/34 38/38/38 
f 41/41/41 42/42/42 38/38/38 
f 38/38/38 37/37/37 41/41/41 
f 41/41/41 37/37/37 39/39/39 
f 42/42/42 43/43/43 40/40/40 
f 40/40/40 38/38/38 42/42/42 
f 42/42/42 41/41/41 44/44/44 
f 44/44/44 45/45/45 42/42/42 
f 45/45/45 46/46/46 43/43/43 
f 43/43/43 42/42/42 45/45/45 
f 47/47/47 48/48/48 45/45/45 
f 45/45/45 44/44/44 47/47/47 
f 48/48/48 49/49/49 46/46/46 
f 46/46/46 45/45/45 48/48/48 
f 47/47/47 50/50/50 51/51/51 
f 51/51/51 48/48/48 47/47/47 
f 48/48/48 51/51/51 52/52/52 
f 52/52/52 49/49/49 48/48/48 
f 53/2/53 54/1/54 55/3/55 
f 56/4/56 57/7/57 58/6/58 
f 58/6/58 59/5/59 56/4/56 
f 60/8/60 61/9/61 53/2/53 
f 53/2/53 55/3/55 60/8/60 
f 62/10/62 63/13/63 64/12/64 
f 64/12/64 65/11/65 62/10/62 
f 61/9/61 66/14/66 53/2/53 
f 57/7/57 67/16/67 68/15/68 
f 68/15/68 58/6/58 57/7/57 
f 61/9/61 60/8/60 59/5/59 
f 59/5/59 58/6/58 61/9/61 
f 65/11/65 64/12/64 69/18/69 
f 69/18/69 70/17/70 65/11/65 
f 66/14/66 61/9/61 58/6/58 
f 58/6/58 68/15/68 66/14/66 
f 71/19/71 56/4/56 70/17/70 
f 70/17/70 69/18/69 71/19/71 
f 62/10/62 55/3/55 54/1/54 
f 54/1/54 20/20/20 62/10/62 
f 65/11/65 60/8/60 55/3/55 
f 55/3/55 62/10/62 65/11/65 
f 70/17/70 59/5/59 60/8/60 
f 60/8/60 65/11/65 70/17/70 
f 56/4/56 59/5/59 70/17/70 
f 21/21/21 22/22/22 54/1/54 
f 54/1/54 53/2/53 21/21/21 
f 66/14/66 23/23/23 21/21/21 
f 21/21/21 53/2/53 66/14/66 
f 22/22/22 20/20/20 54/1/54 
f 62/10/62 20/20/20 24/24/24 
f 24/24/24 63/13/63 62/10/62 
f 63/13/63 72/25/72 64/12/64 
f 69/18/69 64/12/64 72/25/72 
f 72/25/72 73/26/73 69/18/69 
f 71/19/71 69/18/69 73/26/73 
f 73/26/73 74/27/74 71/19/71 
f 63/13/63 24/24/24 28/28/28 
f 28/28/28 72/25/72 63/13/63 
f 73/26/73 72/25/72 75/30/75 
f 75/30/75 76/29/76 73/26/73 
f 74/27/74 73/26/73 76/29/76 
f 76/29/76 77/31/77 74/27/74 
f 72/25/72 28/28/28 32/32/32 
f 32/32/32 75/30/75 72/25/72 
f 76/29/76 75/30/75 78/34/78 
f 78/34/78 79/33/79 76/29/76 
f 77/31/77 76/29/76 79/33/79 
f 79/33/79 80/35/80 77/31/77 
f 75/30/75 32/32/32 36/36/36 
f 36/36/36 78/34/78 75/30/75 
f 81/37/81 79/33/79 78/34/78 
f 78/34/78 82/38/82 81/37/81 
f 83/39/83 80/35/80 79/33/79 
f 79/33/79 81/37/81 83/39/83 
f 82/38/82 78/34/78 36/36/36 
f 36/36/36 40/40/40 82/38/82 
f 84/41/84 81/37/81 82/38/82 
f 82/38/82 85/42/85 84/41/84 
f 81/37/81 84/41/84 83/39/83 
f 85/42/85 82/38/82 40/40/40 
f 40/40/40 43/43/43 85/42/85 
f 85/42/85 86/45/86 87/44/87 
f 87/44/87 84/41/84 85/42/85 
f 86/45/86 85/42/85 43/43/43 
f 43/43/43 46/46/46 86/45/86 
f 88/47/88 87/44/87 86/45/86 
f 86/45/86 89/48/89 88/47/88 
f 89/48/89 86/45/86 46/46/46 
f 46/46/46 49/49/49 89/48/89 
f 88/47/88 89/48/89 90/51/90 
f 90/51/90 91/50/91 88/47/88 
f 89/48/89 49/49/49 52/52/52 
f 52/52/52 90/51/90 89/48/89 
# 148 faces

