# 3ds Max Wavefront OBJ Exporter v0.97b - (c)2007 guruware
# 创建的文件:14.09.2017 21:04:18

mtllib xiati.mtl

#
# object 250a9e18_o02
#

v  0.0442 1.0810 0.1596
v  0.0286 1.1289 0.1437
v  0.0111 1.0734 0.1649
v  0.1106 1.1396 0.1051
v  0.1319 1.0842 0.1337
v  0.1472 1.0891 0.0663
v  0.1353 1.1244 0.0602
v  0.0845 1.0846 0.1499
v  0.0720 1.1315 0.1352
v  0.0937 0.9590 0.1658
v  0.0976 0.9990 0.1674
v  0.0509 0.9917 0.1716
v  0.0553 0.9531 0.1725
v  0.1152 1.1403 0.0919
v  0.1238 1.1483 0.0662
v  0.1424 0.9704 0.1316
v  0.1404 1.0116 0.1356
v  0.1764 0.9625 0.0743
v  0.0021 0.9896 0.1700
v  0.0024 1.1277 0.1535
v  0.0023 1.0721 0.1656
v  0.0020 0.9507 0.1725
v  0.0765 0.8555 0.1666
v  0.1529 0.8602 0.1121
v  0.1870 0.8520 0.0681
v  0.0018 0.8419 0.1758
v  0.0864 0.7328 0.1617
v  0.1639 0.7340 0.1211
v  0.2020 0.7216 0.0630
v  -0.0015 0.7236 0.1787
v  0.1048 0.6252 0.1646
v  0.1782 0.6170 0.1183
v  0.2192 0.6045 0.0663
v  0.0016 0.6228 0.1864
v  0.1189 0.5214 0.1647
v  0.1788 0.5137 0.1275
v  0.2272 0.5029 0.0596
v  0.0019 0.5215 0.1981
v  0.1396 0.3814 0.1380
v  0.2489 0.3639 0.0554
v  0.0016 0.3769 0.1939
v  0.2636 0.2447 0.0578
v  0.1293 0.2751 0.1463
v  0.0011 0.2829 0.1935
v  0.1399 0.1807 0.1316
v  0.2838 0.1522 0.0610
v  0.0009 0.1667 0.1967
v  0.1088 0.0469 0.1543
v  0.3365 0.0176 0.0879
v  0.0011 0.0350 0.2277
v  -0.0397 1.0814 0.1601
v  -0.0065 1.0735 0.1650
v  -0.0315 1.1288 0.1507
v  -0.1186 1.1187 0.1162
v  -0.1361 1.1204 0.0607
v  -0.1486 1.0726 0.0690
v  -0.1277 1.0853 0.1352
v  -0.0673 1.1007 0.1434
v  -0.0800 1.0855 0.1508
v  -0.0897 0.9599 0.1668
v  -0.0513 0.9536 0.1731
v  -0.0467 0.9921 0.1721
v  -0.0934 0.9999 0.1561
v  -0.0645 1.1309 0.1366
v  -0.1117 1.1425 0.0994
v  -0.1200 1.1464 0.0703
v  -0.1387 0.9717 0.1329
v  -0.1364 1.0129 0.1371
v  -0.1731 0.9642 0.0762
v  -0.0729 0.8562 0.1674
v  -0.1497 0.8616 0.1137
v  -0.1843 0.8538 0.0777
v  -0.0895 0.7336 0.1625
v  -0.1675 0.7355 0.1226
v  -0.2061 0.7234 0.0648
v  -0.1018 0.6261 0.1654
v  -0.1759 0.6184 0.1198
v  -0.2175 0.6063 0.0682
v  -0.1758 0.5153 0.1290
v  -0.1153 0.5223 0.1656
v  -0.2250 0.5047 0.0614
v  -0.2473 0.3659 0.0573
v  -0.1368 0.3825 0.1391
v  -0.2624 0.2476 0.0594
v  -0.1274 0.2765 0.1471
v  -0.2828 0.1560 0.0631
v  -0.1382 0.1826 0.1326
v  -0.1063 0.0493 0.1557
v  -0.3351 0.0222 0.0904
# 89 vertices

vn 0.1413 0.2660 0.9536
vn 0.2116 0.3092 0.9272
vn 0.0872 0.1746 0.9808
vn 0.7188 0.4955 0.4876
vn 0.7062 0.2802 0.6502
vn 0.9084 0.3019 0.2892
vn 0.8642 0.3480 0.3634
vn 0.2779 0.2725 0.9212
vn 0.2801 0.4058 0.8700
vn 0.3839 -0.0545 0.9218
vn 0.3608 0.0674 0.9302
vn 0.0469 0.0629 0.9969
vn 0.0948 0.0125 0.9954
vn 0.8493 0.4095 0.3331
vn 0.8646 0.3189 0.3883
vn 0.7369 -0.0436 0.6746
vn 0.7603 0.1164 0.6391
vn 0.8719 0.0699 0.4846
vn 0.0056 0.0635 0.9980
vn 0.1226 0.2815 0.9517
vn 0.0064 0.1252 0.9921
vn 0.0055 0.0385 0.9992
vn 0.3559 -0.0253 0.9342
vn 0.7014 0.0259 0.7123
vn 0.8034 0.0764 0.5906
vn 0.0065 0.0082 0.9999
vn 0.3416 0.0540 0.9383
vn 0.6721 0.0912 0.7348
vn 0.8338 0.0919 0.5444
vn 0.0015 0.0390 0.9992
vn 0.3687 0.0585 0.9277
vn 0.6909 0.0750 0.7190
vn 0.7914 0.0682 0.6075
vn 0.0057 0.0706 0.9975
vn 0.4016 -0.0271 0.9154
vn 0.6545 -0.0142 0.7559
vn 0.8136 0.0819 0.5757
vn 0.0045 0.0142 0.9999
vn 0.4871 -0.0185 0.8732
vn 0.6371 0.0429 0.7696
vn 0.0039 -0.0070 1.0000
vn 0.5758 0.1139 0.8096
vn 0.4306 -0.0237 0.9022
vn 0.0026 -0.0132 0.9999
vn 0.4315 -0.0048 0.9021
vn 0.4206 0.1616 0.8927
vn 0.0039 0.1387 0.9903
vn 0.4916 0.0744 0.8676
vn 0.3023 0.2995 0.9049
vn 0.0085 0.1372 0.9905
vn -0.1634 0.1730 0.9713
vn -0.0609 0.1514 0.9866
vn -0.1168 0.7385 0.6640
vn -0.6611 0.4875 0.5703
vn -0.8879 0.3526 0.2956
vn -0.9242 0.2415 0.2960
vn -0.6675 0.3080 0.6779
vn -0.4814 0.5383 0.6917
vn -0.2907 0.3203 0.9016
vn -0.3920 0.0460 0.9188
vn -0.0841 0.0129 0.9964
vn -0.1184 0.1017 0.9877
vn -0.3721 0.1320 0.9188
vn -0.3784 0.3347 0.8630
vn -0.7203 0.5222 0.4566
vn -0.8560 0.4209 0.3000
vn -0.7056 -0.0155 0.7084
vn -0.6979 0.0852 0.7111
vn -0.8609 0.0776 0.5028
vn -0.3433 -0.0153 0.9391
vn -0.6640 0.0501 0.7460
vn -0.7484 0.1120 0.6538
vn -0.3368 0.0550 0.9400
vn -0.6645 0.0847 0.7425
vn -0.8271 0.0719 0.5575
vn -0.3574 0.0469 0.9328
vn -0.6806 0.0540 0.7306
vn -0.7832 0.0488 0.6198
vn -0.6460 -0.0155 0.7632
vn -0.3924 -0.0280 0.9194
vn -0.8076 0.0817 0.5840
vn -0.6292 0.0436 0.7760
vn -0.4797 -0.0167 0.8773
vn -0.5694 0.1178 0.8136
vn -0.4250 -0.0213 0.9049
vn -0.4138 0.1640 0.8955
vn -0.4246 -0.0034 0.9054
vn -0.4855 0.0747 0.8710
vn -0.2942 0.3003 0.9074
# 89 vertex normals

vt 0.6624 0.6373 0.0000
vt 0.6520 0.6672 0.0000
vt 0.6809 0.6420 0.0000
vt 0.5916 0.6489 0.0000
vt 0.6008 0.6191 0.0000
vt 0.5692 0.6104 0.0000
vt 0.5634 0.6404 0.0000
vt 0.6337 0.6279 0.0000
vt 0.6246 0.6581 0.0000
vt 0.6489 0.5859 0.0000
vt 0.6420 0.6000 0.0000
vt 0.6722 0.6083 0.0000
vt 0.6745 0.5936 0.0000
vt 0.5849 0.6648 0.0000
vt 0.5643 0.6599 0.0000
vt 0.6070 0.5803 0.0000
vt 0.6054 0.5961 0.0000
vt 0.5759 0.5747 0.0000
vt 0.6994 0.6183 0.0000
vt 0.6820 0.6765 0.0000
vt 0.6915 0.6448 0.0000
vt 0.7037 0.6042 0.0000
vt 0.6709 0.5476 0.0000
vt 0.6195 0.5357 0.0000
vt 0.5841 0.5299 0.0000
vt 0.7159 0.5633 0.0000
vt 0.6843 0.4943 0.0000
vt 0.6351 0.4848 0.0000
vt 0.5946 0.4765 0.0000
vt 0.7325 0.5081 0.0000
vt 0.6940 0.4550 0.0000
vt 0.6442 0.4425 0.0000
vt 0.6023 0.4352 0.0000
vt 0.7434 0.4714 0.0000
vt 0.7010 0.4141 0.0000
vt 0.6507 0.4008 0.0000
vt 0.6108 0.3939 0.0000
vt 0.7556 0.4309 0.0000
vt 0.7098 0.3381 0.0000
vt 0.6333 0.3160 0.0000
vt 0.7781 0.3557 0.0000
vt 0.6643 0.2157 0.0000
vt 0.7414 0.2411 0.0000
vt 0.8088 0.2534 0.0000
vt 0.7711 0.1439 0.0000
vt 0.6971 0.1050 0.0000
vt 0.8448 0.1507 0.0000
vt 0.8013 0.0466 0.0000
vt 0.7218 0.0224 0.0000
vt 0.8742 0.0496 0.0000
vt 0.6224 0.6765 0.0000
# 51 texture coords

g 250a9e18_o02
usemtl Material__1567
f 1/1/1 2/2/2 3/3/3 
f 4/4/4 5/5/5 6/6/6 
f 6/6/6 7/7/7 4/4/4 
f 2/2/2 1/1/1 8/8/8 
f 8/8/8 9/9/9 2/2/2 
f 10/10/10 11/11/11 12/12/12 
f 12/12/12 13/13/13 10/10/10 
f 14/14/14 4/4/4 7/7/7 
f 7/7/7 15/15/15 14/14/14 
f 5/5/5 4/4/4 9/9/9 
f 9/9/9 8/8/8 5/5/5 
f 16/16/16 17/17/17 11/11/11 
f 11/11/11 10/10/10 16/16/16 
f 17/17/17 16/16/16 18/18/18 
f 18/18/18 6/6/6 17/17/17 
f 3/3/3 19/19/19 12/12/12 
f 12/12/12 1/1/1 3/3/3 
f 1/1/1 12/12/12 11/11/11 
f 11/11/11 8/8/8 1/1/1 
f 8/8/8 11/11/11 17/17/17 
f 17/17/17 5/5/5 8/8/8 
f 17/17/17 6/6/6 5/5/5 
f 3/3/3 2/2/2 20/20/20 
f 20/20/20 21/21/21 3/3/3 
f 3/3/3 21/21/21 19/19/19 
f 22/22/22 13/13/13 12/12/12 
f 12/12/12 19/19/19 22/22/22 
f 10/10/10 13/13/13 23/23/23 
f 23/23/23 24/24/24 16/16/16 
f 16/16/16 10/10/10 23/23/23 
f 24/24/24 25/25/25 18/18/18 
f 18/18/18 16/16/16 24/24/24 
f 26/26/26 23/23/23 13/13/13 
f 13/13/13 22/22/22 26/26/26 
f 27/27/27 28/28/28 24/24/24 
f 24/24/24 23/23/23 27/27/27 
f 28/28/28 29/29/29 25/25/25 
f 25/25/25 24/24/24 28/28/28 
f 30/30/30 27/27/27 23/23/23 
f 23/23/23 26/26/26 30/30/30 
f 31/31/31 32/32/32 28/28/28 
f 28/28/28 27/27/27 31/31/31 
f 32/32/32 33/33/33 29/29/29 
f 29/29/29 28/28/28 32/32/32 
f 34/34/34 31/31/31 27/27/27 
f 27/27/27 30/30/30 34/34/34 
f 31/31/31 35/35/35 36/36/36 
f 36/36/36 32/32/32 31/31/31 
f 32/32/32 36/36/36 37/37/37 
f 37/37/37 33/33/33 32/32/32 
f 34/34/34 38/38/38 35/35/35 
f 35/35/35 31/31/31 34/34/34 
f 35/35/35 39/39/39 40/40/40 
f 40/40/40 36/36/36 35/35/35 
f 37/37/37 36/36/36 40/40/40 
f 38/38/38 41/41/41 39/39/39 
f 39/39/39 35/35/35 38/38/38 
f 42/42/42 40/40/40 39/39/39 
f 39/39/39 43/43/43 42/42/42 
f 41/41/41 44/44/44 43/43/43 
f 43/43/43 39/39/39 41/41/41 
f 43/43/43 45/45/45 46/46/46 
f 46/46/46 42/42/42 43/43/43 
f 44/44/44 47/47/47 45/45/45 
f 45/45/45 43/43/43 44/44/44 
f 48/48/48 49/49/49 46/46/46 
f 46/46/46 45/45/45 48/48/48 
f 50/50/50 48/48/48 45/45/45 
f 45/45/45 47/47/47 50/50/50 
f 51/1/51 52/3/52 53/2/53 
f 54/4/54 55/7/55 56/6/56 
f 56/6/56 57/5/57 54/4/54 
f 53/2/53 58/9/58 59/8/59 
f 59/8/59 51/1/51 53/2/53 
f 60/10/60 61/13/61 62/12/62 
f 62/12/62 63/11/63 60/10/60 
f 53/2/53 64/51/64 58/9/58 
f 65/14/65 66/15/66 55/7/55 
f 55/7/55 54/4/54 65/14/65 
f 57/5/57 59/8/59 58/9/58 
f 58/9/58 54/4/54 57/5/57 
f 67/16/67 60/10/60 63/11/63 
f 63/11/63 68/17/68 67/16/67 
f 54/4/54 58/9/58 64/51/64 
f 64/51/64 65/14/65 54/4/54 
f 68/17/68 56/6/56 69/18/69 
f 69/18/69 67/16/67 68/17/68 
f 52/3/52 51/1/51 62/12/62 
f 62/12/62 19/19/19 52/3/52 
f 51/1/51 59/8/59 63/11/63 
f 63/11/63 62/12/62 51/1/51 
f 59/8/59 57/5/57 68/17/68 
f 68/17/68 63/11/63 59/8/59 
f 68/17/68 57/5/57 56/6/56 
f 52/3/52 21/21/21 20/20/20 
f 20/20/20 53/2/53 52/3/52 
f 64/51/64 53/2/53 20/20/20 
f 52/3/52 19/19/19 21/21/21 
f 22/22/22 19/19/19 62/12/62 
f 62/12/62 61/13/61 22/22/22 
f 60/10/60 70/23/70 61/13/61 
f 70/23/70 60/10/60 67/16/67 
f 67/16/67 71/24/71 70/23/70 
f 71/24/71 67/16/67 69/18/69 
f 69/18/69 72/25/72 71/24/71 
f 26/26/26 22/22/22 61/13/61 
f 61/13/61 70/23/70 26/26/26 
f 73/27/73 70/23/70 71/24/71 
f 71/24/71 74/28/74 73/27/73 
f 74/28/74 71/24/71 72/25/72 
f 72/25/72 75/29/75 74/28/74 
f 30/30/30 26/26/26 70/23/70 
f 70/23/70 73/27/73 30/30/30 
f 76/31/76 73/27/73 74/28/74 
f 74/28/74 77/32/77 76/31/76 
f 77/32/77 74/28/74 75/29/75 
f 75/29/75 78/33/78 77/32/77 
f 34/34/34 30/30/30 73/27/73 
f 73/27/73 76/31/76 34/34/34 
f 76/31/76 77/32/77 79/36/79 
f 79/36/79 80/35/80 76/31/76 
f 77/32/77 78/33/78 81/37/81 
f 81/37/81 79/36/79 77/32/77 
f 34/34/34 76/31/76 80/35/80 
f 80/35/80 38/38/38 34/34/34 
f 80/35/80 79/36/79 82/40/82 
f 82/40/82 83/39/83 80/35/80 
f 81/37/81 82/40/82 79/36/79 
f 38/38/38 80/35/80 83/39/83 
f 83/39/83 41/41/41 38/38/38 
f 84/42/84 85/43/85 83/39/83 
f 83/39/83 82/40/82 84/42/84 
f 41/41/41 83/39/83 85/43/85 
f 85/43/85 44/44/44 41/41/41 
f 85/43/85 84/42/84 86/46/86 
f 86/46/86 87/45/87 85/43/85 
f 44/44/44 85/43/85 87/45/87 
f 87/45/87 47/47/47 44/44/44 
f 88/48/88 87/45/87 86/46/86 
f 86/46/86 89/49/89 88/48/88 
f 50/50/50 47/47/47 87/45/87 
f 87/45/87 88/48/88 50/50/50 
# 142 faces

