# 3ds Max Wavefront OBJ Exporter v0.97b - (c)2007 guruware
# 创建的文件:20.07.2017 15:52:38

mtllib beiketop.mtl

#
# object SC_ZhongYuan01_BeiKe01_06
#

v  -1.0234 0.4192 3.0981
v  -1.8462 0.1947 2.6210
v  -2.2367 -0.4131 3.5980
v  -1.3228 -0.1753 4.3734
v  -0.0423 0.4975 3.3350
v  -0.0630 -0.1162 4.6744
v  -2.4818 -0.7676 2.7527
v  -0.6849 0.7670 1.7197
v  -1.2439 0.5462 1.4748
v  -0.0208 0.8081 1.8223
v  -1.5824 0.0054 1.0127
v  -2.2948 -0.2905 1.8766
v  0.0078 0.0727 -0.6492
v  -0.2548 0.4238 -0.3189
v  0.0045 0.5519 -0.2142
v  -0.3644 0.0271 -0.5057
v  0.0063 -0.1082 -0.6085
v  -0.3658 -0.1538 -0.4650
v  -0.6841 -0.1067 -0.0235
v  0.9440 0.4088 3.1239
v  1.2035 -0.1886 4.4065
v  2.1348 -0.4363 3.6552
v  1.7765 0.1757 2.6685
v  2.3984 -0.7935 2.8165
v  0.6453 0.7600 1.7371
v  1.2081 0.5334 1.5069
v  2.2393 -0.3144 1.9360
v  1.5529 -0.0113 1.0537
v  0.2653 0.4210 -0.3120
v  0.3754 0.0233 -0.4960
v  0.3740 -0.1576 -0.4553
v  0.6810 -0.1139 -0.0057
v  1.3234 -0.2277 -0.5359
v  -1.1446 -0.2146 -0.5682
v  -1.2697 -0.1015 -0.0888
v  1.4371 -0.1158 -0.0534
v  -1.1568 -0.1702 0.3793
v  1.3112 -0.1832 0.4116
v  -1.0237 0.4047 3.1126
v  -1.3230 -0.1898 4.3879
v  -2.2369 -0.4276 3.6125
v  -1.8465 0.1802 2.6355
v  -0.0425 0.4831 3.3494
v  -0.0633 -0.1307 4.6889
v  -2.4821 -0.7821 2.7671
v  -0.6852 0.7525 1.7341
v  -1.2442 0.5318 1.4893
v  -0.0211 0.7937 1.8368
v  -2.2950 -0.3050 1.8911
v  -1.5827 -0.0091 1.0272
v  0.0075 0.0582 -0.6348
v  0.0043 0.5374 -0.1997
v  -0.2551 0.4093 -0.3044
v  -0.3647 0.0127 -0.4912
v  -0.3661 -0.1682 -0.4505
v  0.0060 -0.1227 -0.5940
v  -0.6843 -0.1212 -0.0091
v  0.9437 0.3943 3.1384
v  1.7762 0.1612 2.6829
v  2.1346 -0.4507 3.6697
v  1.2033 -0.2031 4.4210
v  2.3980 -0.8079 2.8310
v  0.6451 0.7455 1.7515
v  1.2079 0.5189 1.5214
v  1.5527 -0.0257 1.0682
v  2.2390 -0.3289 1.9505
v  0.2650 0.4065 -0.2976
v  0.3752 0.0088 -0.4815
v  0.3738 -0.1721 -0.4408
v  0.6808 -0.1284 0.0088
v  1.3232 -0.2419 -0.5327
v  1.4370 -0.1300 -0.0502
v  -1.2698 -0.1157 -0.0856
v  -1.1447 -0.2289 -0.5650
v  1.3111 -0.1974 0.4148
v  -1.1569 -0.1844 0.3825
# 76 vertices

vn -0.2730 0.9222 0.2740
vn -0.5946 0.7941 0.1263
vn -0.6220 0.7568 0.2007
vn -0.2916 0.8887 0.3540
vn 0.0009 0.9488 0.3159
vn -0.0007 0.9091 0.4165
vn -0.8288 0.5560 0.0624
vn -0.1982 0.9802 -0.0013
vn -0.4951 0.8511 -0.1750
vn 0.0047 0.9992 0.0406
vn -0.6533 0.6579 -0.3747
vn -0.7363 0.6748 -0.0510
vn 0.0140 0.2051 -0.9786
vn -0.3920 0.7285 -0.5618
vn 0.0097 0.9300 -0.3675
vn -0.5883 0.1314 -0.7979
vn 0.0116 -0.2196 -0.9755
vn -0.6225 -0.1672 -0.7646
vn -0.7307 -0.3552 -0.5830
vn 0.2754 0.9193 0.2813
vn 0.2916 0.8856 0.3616
vn 0.6246 0.7502 0.2171
vn 0.5994 0.7878 0.1420
vn 0.8327 0.5472 0.0843
vn 0.2084 0.9780 0.0040
vn 0.5084 0.8458 -0.1619
vn 0.7445 0.6669 -0.0317
vn 0.6698 0.6508 -0.3575
vn 0.4144 0.7242 -0.5511
vn 0.6103 0.1255 -0.7822
vn 0.6408 -0.1733 -0.7479
vn 0.7421 -0.3623 -0.5639
vn 0.0081 0.9737 -0.2277
vn 0.0081 0.9737 -0.2276
vn 0.0059 0.9991 -0.0431
vn 0.0058 0.9990 -0.0432
vn 0.0033 0.9895 0.1444
vn 0.0033 0.9895 0.1443
vn 0.2730 -0.9221 -0.2740
vn 0.2916 -0.8886 -0.3540
vn 0.6220 -0.7568 -0.2008
vn 0.5946 -0.7940 -0.1263
vn -0.0009 -0.9488 -0.3159
vn 0.0007 -0.9091 -0.4166
vn 0.8288 -0.5560 -0.0624
vn 0.1982 -0.9802 0.0013
vn 0.4950 -0.8511 0.1750
vn -0.0047 -0.9992 -0.0406
vn 0.7363 -0.6747 0.0511
vn 0.6533 -0.6578 0.3747
vn -0.0139 -0.2049 0.9787
vn -0.0098 -0.9300 0.3674
vn 0.3920 -0.7285 0.5617
vn 0.5884 -0.1315 0.7978
vn 0.6226 0.1672 0.7645
vn -0.0116 0.2201 0.9754
vn 0.7307 0.3551 0.5830
vn -0.2755 -0.9193 -0.2812
vn -0.5994 -0.7878 -0.1420
vn -0.6246 -0.7502 -0.2170
vn -0.2916 -0.8856 -0.3616
vn -0.8328 -0.5472 -0.0842
vn -0.2085 -0.9780 -0.0040
vn -0.5084 -0.8458 0.1619
vn -0.6698 -0.6508 0.3574
vn -0.7445 -0.6669 0.0316
vn -0.4143 -0.7242 0.5512
vn -0.6104 -0.1254 0.7821
vn -0.6408 0.1733 0.7479
vn -0.7421 0.3622 0.5639
vn -0.0081 -0.9737 0.2277
vn -0.0058 -0.9990 0.0432
vn -0.0081 -0.9737 0.2278
vn -0.0033 -0.9895 -0.1443
vn -0.0033 -0.9895 -0.1444
# 75 vertex normals

vt 0.4215 0.7300 0.0000
vt 0.4562 0.7072 0.0000
vt 0.4724 0.7639 0.0000
vt 0.4333 0.7971 0.0000
vt 0.3826 0.7405 0.0000
vt 0.3813 0.8108 0.0000
vt 0.4925 0.7103 0.0000
vt 0.4099 0.6763 0.0000
vt 0.4341 0.6642 0.0000
vt 0.3831 0.6825 0.0000
vt 0.4538 0.6457 0.0000
vt 0.4830 0.6776 0.0000
vt 0.3810 0.5813 0.0000
vt 0.3893 0.6022 0.0000
vt 0.3826 0.6061 0.0000
vt 0.3951 0.5839 0.0000
vt 0.3811 0.5766 0.0000
vt 0.4004 0.5812 0.0000
vt 0.4161 0.6009 0.0000
vt 0.3442 0.7323 0.0000
vt 0.3251 0.7974 0.0000
vt 0.2890 0.7638 0.0000
vt 0.3067 0.7081 0.0000
vt 0.2688 0.7105 0.0000
vt 0.3584 0.6780 0.0000
vt 0.3330 0.6657 0.0000
vt 0.2790 0.6739 0.0000
vt 0.3075 0.6439 0.0000
vt 0.3747 0.6022 0.0000
vt 0.3668 0.5848 0.0000
vt 0.3625 0.5816 0.0000
vt 0.3478 0.6021 0.0000
vt 0.3064 0.5655 0.0000
vt 0.4367 0.5772 0.0000
vt 0.4421 0.5977 0.0000
vt 0.2992 0.5849 0.0000
vt 0.4348 0.6177 0.0000
vt 0.3045 0.6060 0.0000
# 38 texture coords

g SC_ZhongYuan01_BeiKe01_06
usemtl Material__35
f 1/1/1 2/2/2 3/3/3 
f 3/3/3 4/4/4 1/1/1 
f 5/5/5 1/1/1 4/4/4 
f 4/4/4 6/6/6 5/5/5 
f 7/7/7 3/3/3 2/2/2 
f 8/8/8 9/9/9 2/2/2 
f 2/2/2 1/1/1 8/8/8 
f 10/10/10 8/8/8 1/1/1 
f 1/1/1 5/5/5 10/10/10 
f 9/9/9 11/11/11 12/12/12 
f 12/12/12 2/2/2 9/9/9 
f 13/13/13 14/14/14 15/15/15 
f 13/13/13 16/16/16 14/14/14 
f 14/14/14 9/9/9 8/8/8 
f 10/10/10 15/15/15 14/14/14 
f 14/14/14 8/8/8 10/10/10 
f 13/13/13 17/17/17 18/18/18 
f 18/18/18 16/16/16 13/13/13 
f 11/11/11 9/9/9 14/14/14 
f 11/11/11 14/14/14 16/16/16 
f 11/11/11 16/16/16 19/19/19 
f 7/7/7 2/2/2 12/12/12 
f 20/20/20 21/21/21 22/22/22 
f 22/22/22 23/23/23 20/20/20 
f 5/5/5 6/6/6 21/21/21 
f 21/21/21 20/20/20 5/5/5 
f 24/24/24 23/23/23 22/22/22 
f 25/25/25 20/20/20 23/23/23 
f 23/23/23 26/26/26 25/25/25 
f 10/10/10 5/5/5 20/20/20 
f 20/20/20 25/25/25 10/10/10 
f 26/26/26 23/23/23 27/27/27 
f 27/27/27 28/28/28 26/26/26 
f 13/13/13 15/15/15 29/29/29 
f 13/13/13 29/29/29 30/30/30 
f 29/29/29 25/25/25 26/26/26 
f 10/10/10 25/25/25 29/29/29 
f 29/29/29 15/15/15 10/10/10 
f 13/13/13 30/30/30 31/31/31 
f 31/31/31 17/17/17 13/13/13 
f 28/28/28 32/32/32 30/30/30 
f 28/28/28 30/30/30 29/29/29 
f 28/28/28 29/29/29 26/26/26 
f 24/24/24 27/27/27 23/23/23 
f 30/30/30 32/32/32 31/31/31 
f 19/19/19 16/16/16 18/18/18 
f 33/33/33 34/34/34 35/35/35 
f 35/35/35 36/36/36 33/33/33 
f 36/36/36 35/35/35 37/37/37 
f 37/37/37 38/38/38 36/36/36 
f 39/1/39 40/4/40 41/3/41 
f 41/3/41 42/2/42 39/1/39 
f 43/5/43 44/6/44 40/4/40 
f 40/4/40 39/1/39 43/5/43 
f 45/7/45 42/2/42 41/3/41 
f 46/8/46 39/1/39 42/2/42 
f 42/2/42 47/9/47 46/8/46 
f 48/10/48 43/5/43 39/1/39 
f 39/1/39 46/8/46 48/10/48 
f 47/9/47 42/2/42 49/12/49 
f 49/12/49 50/11/50 47/9/47 
f 51/13/51 52/15/52 53/14/53 
f 51/13/51 53/14/53 54/16/54 
f 53/14/53 46/8/46 47/9/47 
f 48/10/48 46/8/46 53/14/53 
f 53/14/53 52/15/52 48/10/48 
f 51/13/51 54/16/54 55/18/55 
f 55/18/55 56/17/56 51/13/51 
f 50/11/50 57/19/57 54/16/54 
f 50/11/50 54/16/54 53/14/53 
f 50/11/50 53/14/53 47/9/47 
f 45/7/45 49/12/49 42/2/42 
f 58/20/58 59/23/59 60/22/60 
f 60/22/60 61/21/61 58/20/58 
f 43/5/43 58/20/58 61/21/61 
f 61/21/61 44/6/44 43/5/43 
f 62/24/62 60/22/60 59/23/59 
f 63/25/63 64/26/64 59/23/59 
f 59/23/59 58/20/58 63/25/63 
f 48/10/48 63/25/63 58/20/58 
f 58/20/58 43/5/43 48/10/48 
f 64/26/64 65/28/65 66/27/66 
f 66/27/66 59/23/59 64/26/64 
f 51/13/51 67/29/67 52/15/52 
f 51/13/51 68/30/68 67/29/67 
f 67/29/67 64/26/64 63/25/63 
f 48/10/48 52/15/52 67/29/67 
f 67/29/67 63/25/63 48/10/48 
f 51/13/51 56/17/56 69/31/69 
f 69/31/69 68/30/68 51/13/51 
f 65/28/65 64/26/64 67/29/67 
f 65/28/65 67/29/67 68/30/68 
f 65/28/65 68/30/68 70/32/70 
f 62/24/62 59/23/59 66/27/66 
f 68/30/68 69/31/69 70/32/70 
f 57/19/57 55/18/55 54/16/54 
f 71/33/71 72/36/72 73/35/72 
f 73/35/72 74/34/73 71/33/71 
f 72/36/72 75/38/74 76/37/75 
f 76/37/75 73/35/72 72/36/72 
# 100 faces

