# 3ds Max Wavefront OBJ Exporter v0.97b - (c)2007 guruware
# 创建的文件:10.09.2017 10:22:05

mtllib diban.mtl

#
# object 对象003
#

v  1383.3334 0.0000 -1383.3330
v  -1383.3331 0.0000 -1383.3335
v  -1383.3334 0.0000 1383.3330
v  1383.3331 0.0000 1383.3335
v  4150.0000 0.0000 -1383.3330
v  4150.0000 0.0000 -547.4309
v  4150.0000 0.0000 547.4313
v  4150.0000 0.0000 1383.3335
v  -4150.0000 0.0000 1383.3330
v  -4150.0000 0.0000 -1383.3335
v  1383.3335 0.0000 -4150.0000
v  -1383.3330 0.0000 -4150.0000
v  -1383.3335 0.0000 4150.0000
v  1383.3330 0.0000 4150.0000
v  3347.0000 0.0000 -4150.0000
v  4150.0000 0.0000 -4150.0000
v  4150.0000 0.0000 -3701.4897
v  4150.0000 0.0000 4150.0000
v  4150.0000 0.0000 3689.7854
v  -2846.8281 0.0000 4150.0000
v  -4150.0000 0.0000 4150.0000
v  -2847.0000 0.0000 -4150.0000
v  -4150.0000 0.0000 -4150.0000
v  -1847.0000 0.0000 -4150.0000
# 24 vertices

vn 0.0000 1.0000 -0.0000
# 1 vertex normals

vt 1.6528 1.6528 0.5000
vt -0.6528 1.6528 0.5000
vt -0.6528 -0.6528 0.5000
vt 1.6528 -0.6528 0.5000
vt 3.9583 1.6528 0.5000
vt 3.9583 0.9562 0.5000
vt 3.9583 0.0438 0.5000
vt 3.9583 -0.6528 0.5000
vt -2.9583 -0.6528 0.5000
vt -2.9583 1.6528 0.5000
vt 1.6528 3.9583 0.5000
vt -0.6528 3.9583 0.5000
vt -0.6528 -2.9583 0.5000
vt 1.6528 -2.9583 0.5000
vt 3.2892 3.9583 0.5000
vt 3.9583 3.9583 0.5000
vt 3.9583 3.5846 0.5000
vt 3.9583 -2.9583 0.5000
vt 3.9583 -2.5748 0.5000
vt -1.8724 -2.9583 0.5000
vt -2.9583 -2.9583 0.5000
vt -1.8725 3.9583 0.5000
vt -2.9583 3.9583 0.5000
vt -1.0392 3.9583 0.5000
# 24 texture coords

g 对象003
usemtl wire_113135006
f 1/1/1 2/2/1 3/3/1 
f 3/3/1 4/4/1 1/1/1 
f 5/5/1 1/1/1 4/4/1 
f 6/6/1 5/5/1 4/4/1 
f 7/7/1 6/6/1 4/4/1 
f 8/8/1 7/7/1 4/4/1 
f 9/9/1 3/3/1 2/2/1 
f 2/2/1 10/10/1 9/9/1 
f 11/11/1 12/12/1 2/2/1 
f 2/2/1 1/1/1 11/11/1 
f 13/13/1 14/14/1 4/4/1 
f 4/4/1 3/3/1 13/13/1 
f 15/15/1 11/11/1 1/1/1 
f 16/16/1 15/15/1 1/1/1 
f 17/17/1 16/16/1 1/1/1 
f 5/5/1 17/17/1 1/1/1 
f 14/14/1 18/18/1 19/19/1 
f 14/14/1 19/19/1 8/8/1 
f 4/4/1 14/14/1 8/8/1 
f 20/20/1 13/13/1 3/3/1 
f 21/21/1 20/20/1 3/3/1 
f 9/9/1 21/21/1 3/3/1 
f 22/22/1 23/23/1 10/10/1 
f 24/24/1 22/22/1 10/10/1 
f 12/12/1 24/24/1 10/10/1 
f 2/2/1 12/12/1 10/10/1 
# 26 faces

