# 3ds Max Wavefront OBJ Exporter v0.97b - (c)2007 guruware
# 创建的文件:10.09.2017 11:37:27

mtllib hongqi.mtl

#
# object 对象
#

v  -415.3932 2389.8806 4130.1143
v  -415.3932 2841.2473 4130.1143
v  311.2891 2841.2473 4130.1143
v  311.2891 2389.8806 4130.1143
# 4 vertices

vn 0.0000 0.0000 -1.0000
# 1 vertex normals

vt 1.0000 0.0000 0.0000
vt 1.0000 1.0000 0.0000
vt 0.0000 1.0000 0.0000
vt 0.0000 0.0000 0.0000
# 4 texture coords

g 对象
usemtl Material__3
f 1/1/1 2/2/1 3/3/1 
f 3/3/1 4/4/1 1/1/1 
# 2 faces

