# 3ds Max Wavefront OBJ Exporter v0.97b - (c)2007 guruware
# 创建的文件:11.09.2017 16:35:56

mtllib men.mtl

#
# object dvere002
#

v  -2802.9102 1900.0720 -4330.9297
v  -2780.5332 160.8170 -4330.8916
v  -1900.9453 163.7806 -4330.1294
v  -2796.9766 1906.1167 -4330.9102
v  -1916.8691 1918.9777 -4329.4766
v  -2790.0820 1913.1389 -4330.8877
v  -1910.7617 1912.8389 -4329.4556
v  -1904.2324 1906.2776 -4329.4336
v  -1900.9434 160.7603 -4319.5547
v  -2780.5254 157.7974 -4320.3174
v  -1900.9316 -6.3127 -4319.5547
v  -2780.5137 -9.2755 -4320.3179
v  -1904.2324 1906.2777 -4361.7847
v  -1900.9492 163.7806 -4362.4800
v  -1910.7617 1912.8389 -4361.8071
v  -2780.5332 160.8170 -4363.2427
v  -2802.9160 1900.0720 -4363.2803
v  -2796.9746 1906.1168 -4363.2612
v  -2790.0801 1913.1390 -4363.2383
v  -1916.8711 1918.9775 -4361.8276
v  -2780.5293 157.7975 -4352.6675
v  -1900.9473 160.7603 -4351.9053
v  -2780.5195 -9.2755 -4352.6680
v  -1900.9355 -6.3131 -4351.9058
# 24 vertices

vn -0.0009 0.0000 1.0000
vn -0.0025 -0.0008 1.0000
vn -0.0016 -0.0016 1.0000
vn -0.0016 -0.0004 1.0000
vn -0.0038 -0.0004 1.0000
vn -0.0035 0.9615 0.2746
vn -0.0035 0.9616 0.2746
vn -0.0009 -0.0000 1.0000
vn 1.0000 0.0019 0.0000
vn 1.0000 0.0019 -0.0001
vn 0.7088 0.7054 -0.0000
vn 0.7088 0.7054 0.0000
vn -0.9999 -0.0129 -0.0000
vn -0.9999 -0.0129 0.0002
vn -0.7136 0.7006 -0.0000
vn -0.0067 1.0000 0.0000
vn -0.0067 1.0000 -0.0000
vn -0.7136 0.7005 0.0001
vn -0.7132 0.7010 -0.0000
vn 0.7089 0.7053 -0.0000
vn -1.0000 -0.0022 0.0001
vn -1.0000 -0.0013 -0.0000
vn 1.0000 0.0002 -0.0001
vn -1.0000 -0.0001 0.0002
vn -1.0000 -0.0001 0.0001
vn 1.0000 0.0001 -0.0001
vn 0.0034 -1.0000 0.0000
vn 0.0034 -1.0000 -0.0000
vn 0.0016 -0.0017 -1.0000
vn 0.0032 0.0000 -1.0000
vn 0.0033 0.0000 -1.0000
vn 0.0009 0.0000 -1.0000
vn -0.1764 -0.9465 -0.2702
vn 0.0129 0.0001 -0.9999
vn 1.0000 0.0001 -0.0002
vn -0.1204 -0.0616 -0.9908
vn 0.0016 0.0004 -1.0000
vn 0.0038 0.0004 -1.0000
# 38 vertex normals

vt 0.5567 1.6538 5.9060
vt 0.5847 -0.5202 5.9059
vt 1.6842 -0.5165 5.9050
vt 0.5642 1.6614 5.9059
vt 1.6643 1.6775 5.9041
vt 0.5728 1.6702 5.9059
vt 1.6719 1.6698 5.9041
vt 1.6801 1.6616 5.9041
vt 1.6842 5.8917 -0.5203
vt 1.6842 5.9050 -0.5165
vt 0.5847 5.9059 -0.5202
vt 0.5847 5.8927 -0.5240
vt 1.6842 -0.7291 5.8917
vt 1.6842 -0.5203 5.8917
vt 0.5847 -0.5240 5.8927
vt 0.5847 -0.7328 5.8927
vt 5.9445 1.6616 1.6801
vt 5.9041 1.6616 1.6801
vt 5.9050 -0.5165 1.6842
vt 5.9454 -0.5165 1.6842
vt 1.6719 5.9446 1.6698
vt 1.6719 5.9041 1.6698
vt 1.6801 5.9041 1.6616
vt 1.6801 5.9445 1.6616
vt -4.9464 -0.5202 0.5847
vt -4.9059 -0.5202 0.5847
vt -4.9060 1.6538 0.5567
vt -4.9464 1.6538 0.5567
vt 0.5642 5.9464 1.6614
vt 0.5642 5.9059 1.6614
vt 0.5728 5.9059 1.6702
vt 0.5728 5.9463 1.6702
vt 1.6643 5.9041 1.6775
vt 1.6643 5.9446 1.6775
vt 0.5567 5.9464 1.6538
vt 0.5567 5.9060 1.6538
vt -4.9331 -0.5240 0.5847
vt -4.8927 -0.5240 0.5847
vt 5.8917 -0.5203 1.6842
vt 5.9322 -0.5203 1.6842
vt -4.9331 -0.7328 0.5847
vt -4.8927 -0.7328 0.5847
vt 5.8917 -0.7291 1.6842
vt 5.9322 -0.7291 1.6842
vt -0.6842 5.9322 -0.7291
vt -0.6842 5.8917 -0.7291
vt 0.4153 5.8927 -0.7328
vt 0.4153 5.9331 -0.7328
vt 0.4272 1.6702 5.9463
vt -0.6643 1.6775 5.9446
vt -0.6719 1.6698 5.9446
vt 0.4153 -0.5202 5.9464
vt 0.4433 1.6538 5.9464
vt 0.4358 1.6614 5.9464
vt -0.6842 -0.7291 5.9322
vt 0.4153 -0.7328 5.9331
vt 0.4153 -0.5240 5.9331
vt 0.4153 5.9331 -0.5240
vt 0.4153 5.9464 -0.5202
vt -0.6842 -0.5165 5.9454
vt -0.6801 1.6616 5.9445
# 61 texture coords

g dvere002
usemtl wire_138008110
f 1/1/1 2/2/1 3/3/1 
f 4/4/2 1/1/2 3/3/2 
f 5/5/3 6/6/3 4/4/3 
f 5/5/4 4/4/4 3/3/4 
f 7/7/5 5/5/5 3/3/5 
f 8/8/5 7/7/5 3/3/5 
f 9/9/6 3/10/6 2/11/6 
f 2/11/7 10/12/7 9/9/7 
f 11/13/8 9/14/8 10/15/8 
f 10/15/8 12/16/8 11/13/8 
f 13/17/9 8/18/9 3/19/9 
f 3/19/10 14/20/10 13/17/10 
f 15/21/11 7/22/11 8/23/11 
f 8/23/12 13/24/12 15/21/12 
f 16/25/13 2/26/13 1/27/13 
f 1/27/14 17/28/14 16/25/14 
f 18/29/15 4/30/15 6/31/15 
f 6/31/15 19/32/15 18/29/15 
f 19/32/16 6/31/16 5/33/16 
f 5/33/17 20/34/17 19/32/17 
f 17/35/18 1/36/18 4/30/18 
f 4/30/19 18/29/19 17/35/19 
f 20/34/20 5/33/20 7/22/20 
f 7/22/11 15/21/11 20/34/11 
f 21/37/21 10/38/21 2/26/21 
f 2/26/22 16/25/22 21/37/22 
f 14/20/23 3/19/23 9/39/23 
f 9/39/23 22/40/23 14/20/23 
f 23/41/24 12/42/24 10/38/24 
f 10/38/25 21/37/25 23/41/25 
f 22/40/26 9/39/26 11/43/26 
f 11/43/26 24/44/26 22/40/26 
f 24/45/27 11/46/27 12/47/27 
f 12/47/28 23/48/28 24/45/28 
f 19/49/29 20/50/29 15/51/29 
f 16/52/30 17/53/30 18/54/30 
f 16/52/31 18/54/31 19/49/31 
f 24/55/32 23/56/32 21/57/32 
f 24/45/33 21/58/33 16/59/33 
f 24/55/34 16/52/34 19/49/34 
f 14/20/35 22/40/35 24/44/35 
f 14/60/36 24/55/36 19/49/36 
f 14/60/37 19/49/37 15/51/37 
f 14/60/38 15/51/38 13/61/38 
# 44 faces

#
# object dvere001
#

v  -2893.6875 1900.0723 4318.6040
v  -2916.0645 160.8171 4318.5674
v  -3795.6543 163.7808 4317.8052
v  -2899.6211 1906.1169 4318.5850
v  -3779.7285 1918.9779 4317.1519
v  -2906.5156 1913.1392 4318.5625
v  -3785.8379 1912.8391 4317.1304
v  -3792.3652 1906.2778 4317.1084
v  -3795.6563 160.7604 4307.2305
v  -2916.0742 157.7976 4307.9932
v  -3795.6680 -6.3126 4307.2305
v  -2916.0840 -9.2754 4307.9932
v  -3792.3652 1906.2780 4349.4590
v  -3795.6484 163.7808 4350.1558
v  -3785.8359 1912.8391 4349.4814
v  -2916.0645 160.8171 4350.9180
v  -2893.6836 1900.0723 4350.9551
v  -2899.6230 1906.1172 4350.9355
v  -2906.5176 1913.1394 4350.9136
v  -3779.7266 1918.9778 4349.5029
v  -2916.0684 157.7976 4340.3433
v  -3795.6504 160.7604 4339.5811
v  -2916.0781 -9.2753 4340.3433
v  -3795.6621 -6.3130 4339.5811
# 24 vertices

vn 0.0010 0.0000 -1.0000
vn 0.0018 -0.0006 -1.0000
vn 0.0014 -0.0012 -1.0000
vn 0.0014 -0.0003 -1.0000
vn 0.0024 -0.0003 -1.0000
vn 0.0036 0.9261 -0.3774
vn 0.0036 0.9261 -0.3773
vn -1.0000 0.0010 0.0014
vn -1.0000 0.0010 0.0016
vn -0.5610 0.8284 0.0008
vn 0.9999 -0.0173 -0.0013
vn 0.9999 -0.0173 -0.0017
vn 0.5660 0.8238 -0.0007
vn 0.0057 1.0000 -0.0000
vn 0.5661 0.8238 -0.0010
vn 0.5657 0.8241 -0.0007
vn 1.0000 -0.0019 -0.0017
vn 1.0000 0.0003 -0.0013
vn -1.0000 -0.0010 0.0016
vn -1.0000 -0.0025 0.0017
vn 1.0000 0.0017 -0.0017
vn -1.0000 -0.0017 0.0017
vn -0.0035 -1.0000 -0.0000
vn -0.0014 -0.0013 1.0000
vn -0.0022 0.0000 1.0000
vn -0.0010 0.0000 1.0000
vn 0.1143 -0.9202 0.3748
vn -0.0067 0.0000 1.0000
vn -1.0000 -0.0017 0.0014
vn 0.0566 -0.0434 0.9975
vn -0.0014 0.0003 1.0000
vn -0.0024 0.0003 1.0000
# 32 vertex normals

vt 0.5567 1.6538 -4.9060
vt 0.5847 -0.5202 -4.9059
vt 1.6842 -0.5165 -4.9050
vt 0.5642 1.6614 -4.9059
vt 1.6643 1.6775 -4.9041
vt 0.5728 1.6702 -4.9059
vt 1.6719 1.6698 -4.9041
vt 1.6801 1.6616 -4.9041
vt -0.6842 -4.8917 -0.5203
vt -0.6842 -4.9050 -0.5165
vt 0.4153 -4.9059 -0.5202
vt 0.4153 -4.8927 -0.5240
vt 1.6842 -0.7291 -4.8917
vt 1.6842 -0.5203 -4.8917
vt 0.5847 -0.5240 -4.8927
vt 0.5847 -0.7328 -4.8927
vt 5.9445 1.6616 -0.6801
vt 5.9041 1.6616 -0.6801
vt 5.9050 -0.5165 -0.6842
vt 5.9454 -0.5165 -0.6842
vt -0.6719 -4.9446 1.6698
vt -0.6719 -4.9041 1.6698
vt -0.6801 -4.9041 1.6616
vt -0.6801 -4.9445 1.6616
vt -4.9464 -0.5202 0.4153
vt -4.9059 -0.5202 0.4153
vt -4.9060 1.6538 0.4433
vt -4.9464 1.6538 0.4433
vt 0.4358 -4.9464 1.6614
vt 0.4358 -4.9059 1.6614
vt 0.4272 -4.9059 1.6702
vt 0.4272 -4.9463 1.6702
vt -0.6643 -4.9041 1.6775
vt -0.6643 -4.9446 1.6775
vt 0.4433 -4.9464 1.6538
vt 0.4433 -4.9060 1.6538
vt -4.9331 -0.5240 0.4153
vt -4.8927 -0.5240 0.4153
vt 5.8917 -0.5203 -0.6842
vt 5.9322 -0.5203 -0.6842
vt -4.9331 -0.7328 0.4153
vt -4.8927 -0.7328 0.4153
vt 5.8917 -0.7291 -0.6842
vt 5.9322 -0.7291 -0.6842
vt 1.6842 -4.9322 -0.7291
vt 1.6842 -4.8917 -0.7291
vt 0.5847 -4.8927 -0.7328
vt 0.5847 -4.9331 -0.7328
vt 0.4272 1.6702 -4.9463
vt -0.6643 1.6775 -4.9446
vt -0.6719 1.6698 -4.9446
vt 0.4153 -0.5202 -4.9464
vt 0.4433 1.6538 -4.9464
vt 0.4358 1.6614 -4.9464
vt -0.6842 -0.7291 -4.9322
vt 0.4153 -0.7328 -4.9331
vt 0.4153 -0.5240 -4.9331
vt 0.5847 -4.9331 -0.5240
vt 0.5847 -4.9464 -0.5202
vt -0.6842 -0.5165 -4.9454
vt -0.6801 1.6616 -4.9445
# 61 texture coords

g dvere001
usemtl wire_138008110
f 25/62/39 26/63/39 27/64/39 
f 28/65/40 25/62/40 27/64/40 
f 29/66/41 30/67/41 28/65/41 
f 29/66/42 28/65/42 27/64/42 
f 31/68/43 29/66/43 27/64/43 
f 32/69/43 31/68/43 27/64/43 
f 33/70/44 27/71/44 26/72/44 
f 26/72/45 34/73/45 33/70/45 
f 35/74/39 33/75/39 34/76/39 
f 34/76/39 36/77/39 35/74/39 
f 37/78/46 32/79/46 27/80/46 
f 27/80/47 38/81/47 37/78/47 
f 39/82/48 31/83/48 32/84/48 
f 32/84/48 37/85/48 39/82/48 
f 40/86/49 26/87/49 25/88/49 
f 25/88/50 41/89/50 40/86/50 
f 42/90/51 28/91/51 30/92/51 
f 30/92/51 43/93/51 42/90/51 
f 43/93/52 30/92/52 29/94/52 
f 29/94/52 44/95/52 43/93/52 
f 41/96/53 25/97/53 28/91/53 
f 28/91/54 42/90/54 41/96/54 
f 44/95/48 29/94/48 31/83/48 
f 31/83/48 39/82/48 44/95/48 
f 45/98/55 34/99/55 26/87/55 
f 26/87/56 40/86/56 45/98/56 
f 38/81/57 27/80/57 33/100/57 
f 33/100/58 46/101/58 38/81/58 
f 47/102/59 36/103/59 34/99/59 
f 34/99/59 45/98/59 47/102/59 
f 46/101/60 33/100/60 35/104/60 
f 35/104/60 48/105/60 46/101/60 
f 48/106/61 35/107/61 36/108/61 
f 36/108/61 47/109/61 48/106/61 
f 43/110/62 44/111/62 39/112/62 
f 40/113/63 41/114/63 42/115/63 
f 40/113/63 42/115/63 43/110/63 
f 48/116/64 47/117/64 45/118/64 
f 48/106/65 45/119/65 40/120/65 
f 48/116/66 40/113/66 43/110/66 
f 38/81/67 46/101/67 48/105/67 
f 38/121/68 48/116/68 43/110/68 
f 38/121/69 43/110/69 39/112/69 
f 38/121/70 39/112/70 37/122/70 
# 44 faces

